<svg width="180" height="48" viewBox="0 0 180 48" xmlns="http://www.w3.org/2000/svg"><title>黑底</title><defs><linearGradient x1="50%" y1="26.031%" x2="50%" y2="100%" id="a"><stop stop-color="#00CDB7" offset="0%"/><stop stop-color="#95C837" offset="100%"/></linearGradient></defs><g fill="none" fill-rule="evenodd"><path d="M40.87 14.614a1.817 1.817 0 0 0 1.81-1.834c0-1.012-.82-1.834-1.81-1.834a1.817 1.817 0 0 0-1.814 1.834c0 1.033.822 1.834 1.813 1.834M40.87 3.674a1.817 1.817 0 0 0 1.81-1.833c0-1.01-.82-1.833-1.81-1.833a1.817 1.817 0 0 0-1.814 1.834c0 1.012.822 1.834 1.813 1.834M40.87 9.155a1.817 1.817 0 0 0 1.81-1.834c0-1.01-.82-1.833-1.81-1.833a1.817 1.817 0 0 0-1.814 1.834c0 1.013.822 1.835 1.813 1.835M46.35 9.155A1.817 1.817 0 0 0 48.16 7.32c0-1.01-.822-1.833-1.813-1.833a1.817 1.817 0 0 0-1.814 1.834 1.804 1.804 0 0 0 1.813 1.835M35.368 9.155A1.817 1.817 0 0 0 37.18 7.32c0-1.01-.822-1.833-1.812-1.833a1.817 1.817 0 0 0-1.813 1.834c0 1.013.8 1.835 1.813 1.835" fill="#8FBC26"/><path d="M47.93 39.415s-2.066-4.11-8.958-16.06C32.08 11.38 28.876 6.47 28.876 6.47c-2.34-3.75-6.155-3.772-8.515-.04 0 0-2.613 3.814-10.16 16.924-7.544 13.11-8.893 16.04-8.893 16.04-2.972 5.627-.59 8.283 5.374 6.112 0 0 8.137-4.026 17.96-4.026 9.842 0 17.957 4.026 17.957 4.026 5.965 2.234 8.347-.485 5.333-6.09M33.386 31.15a12.94 12.94 0 0 1-8.79 3.436c-3.245 0-6.364-1.223-8.788-3.436a1.624 1.624 0 0 1-.105-2.276c.59-.654 1.623-.696 2.276-.106a9.738 9.738 0 0 0 6.596 2.593 9.738 9.738 0 0 0 6.597-2.593 1.587 1.587 0 0 1 2.277.106c.632.653.59 1.686-.064 2.276" fill="url(#a)" transform="translate(0 -.077)"/><path d="M93.246 17.712h8.03V13.56h-8.03v4.152zm10.897 0h8.157V13.56h-8.157v4.152zm-10.897-6.386h8.03V7.3h-8.03v4.026zm10.897 0h8.157V7.3h-8.157v4.026zm-13.91-6.534v15.302h11.022v3.393H89.473v2.51h11.782v3.52h-12.71v2.254h28.392v-2.254h-12.773v-3.52h11.91v-2.51h-11.91v-3.392h11.023V4.792H90.232zM138.73 14.825h6.282v-7.02h-6.26v7.02h-.02zm-2.634 2.38h11.53V5.426h-11.53v11.78zM165.71 11.41l-4.427-4.426-1.686 1.707 1.94 1.96h-6.45l5.29-5.31-1.855-1.855-7.166 7.166v2.467h12.646v-.02zM133.862 5.846h-9.654l.822-1.328-2.044-1.286-3.646 5.754 2.023 1.307 1.496-2.34h11.002zM151.756 32.72h2.635v-5.713h7.526v1.602c0 1.517-1.054 1.622-2.487 1.622v2.382c2.675 0 4.994-.696 4.994-3.69v-13.72h-12.668V32.72zm2.635-12.626h7.526v-2.76h-7.525v2.76zm0 4.763h7.526v-2.634h-7.525v2.634zM171.19 17.25h4.32c2.214 0 3.668-1.498 4.026-4.027.17-1.138.21-1.58.21-1.58h-2.697s-.022.484-.212 1.58c-.126.695-.4 1.328-1.327 1.328h-4.32c-.738 0-1.328-.59-1.328-1.327V11.43l8.81-3.687-1.012-2.424-7.798 3.266V3.843h-2.698v9.38a4.04 4.04 0 0 0 4.026 4.026zM177.28 26.733s.022.464-.168 1.56c-.126.696-.4 1.328-1.327 1.328h-4.595c-.738 0-1.328-.59-1.328-1.327v-2.297l9.653-4.047-1.01-2.425-8.622 3.625v-4.236h-2.698v9.38a4.04 4.04 0 0 0 4.026 4.025h4.596c2.213 0 3.667-1.498 4.025-4.027.17-1.138.17-1.56.17-1.56h-2.72zM123.197 32.36h21.94V19.694h-21.94V32.36zm2.887-7.397h16.167v-2.888h-16.166v2.888zm0 4.89h16.167v-2.76h-16.166v2.76zM66.94 7.427V4.792h-9.146v28.033h2.635V7.427h3.75l-2.255 8.662c1.75 2.255 2.76 4.426 2.76 6.533 0 2.804-1.495 2.867-2.844 2.867l-.02 2.613s5.48.316 5.48-5.27c0-2.507-.928-4.636-2.76-6.997l2.4-8.41zM69.492 25.49h9.274V11.937h-9.274V25.49zm2.634-2.508h4.132v-8.516h-4.132v8.516z" fill="#828888"/><path d="M68.585 5.298v2.76H81.61V26.8c0 1.62-.336 3.14-3.245 3.14v2.866c3.857 0 6.092-2.277 6.007-5.354V8.08h.99V5.32H68.586v-.022zM134.726 11.073h-5.65l.17-2.13h-2.76l-.17 2.13h-7.02v2.13h6.388c-.61 1.516-3.246 3.793-6.45 5.1l1.096 2.38c3.5-1.727 6.113-3.54 7.103-5.268.928.674 5.523 3.688 5.523 3.688l1.6-2.002a150.932 150.932 0 0 0-6.132-3.877h6.26v-2.15h.042zM58.28 45.113l2.654-7.588h1.244l2.635 7.588H63.59l-.716-2.108h-2.72l-.716 2.108h-1.16zm3.202-6.28l-1.075 3.223H62.6l-1.075-3.224h-.043zM66.646 37.145h1.117v7.99h-1.117zM70.967 36.745c.464 0 .78.316.78.738 0 .42-.316.737-.78.737-.442 0-.76-.316-.76-.737 0-.443.318-.738.76-.738zm-.548 2.508h1.116v5.86H70.42v-5.86zM75.31 44.227h-.064v.886H74.15v-7.99h1.117v3.058h.063c.148-.505.738-1.01 1.707-1.01 1.35 0 2.235.926 2.235 2.55v.927c0 1.623-.886 2.57-2.256 2.57-.927-.02-1.496-.463-1.707-.99zm2.845-1.75v-.568c0-1.14-.527-1.75-1.413-1.75-.885 0-1.454.632-1.454 1.644v.864c0 .906.59 1.538 1.475 1.538.822 0 1.392-.548 1.392-1.728zM81.17 43.405c0-1.032.715-1.728 2.064-1.728h1.497v-.548c0-.675-.442-.992-1.16-.992-.694 0-1.01.274-1.116.654H81.38c.084-.97.842-1.623 2.213-1.623 1.243 0 2.255.526 2.255 1.98v3.984h-1.075v-.76h-.042c-.273.444-.78.865-1.664.865-1.118-.022-1.897-.74-1.897-1.835zm3.582-.252V42.5h-1.37c-.76 0-1.075.357-1.075.863 0 .633.527.928 1.117.928.738 0 1.328-.505 1.328-1.137zM89.473 44.227h-.063v.886h-1.096v-7.99h1.117v3.058h.064c.148-.505.738-1.01 1.707-1.01 1.35 0 2.236.926 2.236 2.55v.927c0 1.623-.886 2.57-2.256 2.57-.927-.02-1.496-.463-1.707-.99zm2.846-1.75v-.568c0-1.14-.528-1.75-1.414-1.75-.885 0-1.454.632-1.454 1.644v.864c0 .906.59 1.538 1.475 1.538.822 0 1.392-.548 1.392-1.728zM95.333 43.405c0-1.032.716-1.728 2.065-1.728h1.497v-.548c0-.675-.443-.992-1.16-.992-.695 0-1.01.274-1.117.654h-1.075c.085-.97.843-1.623 2.213-1.623 1.244 0 2.256.526 2.256 1.98v3.984h-1.075v-.76h-.042c-.274.444-.78.865-1.665.865-1.118-.022-1.897-.74-1.897-1.835zm3.583-.252V42.5h-1.37c-.76 0-1.075.357-1.075.863 0 .633.528.928 1.118.928.738 0 1.328-.505 1.328-1.137zM107.24 43.026c.064.675.655 1.223 1.772 1.223 1.01 0 1.644-.465 1.644-1.182 0-.59-.4-.906-1.223-1.096l-1.285-.316c-.95-.232-1.813-.8-1.813-2.044 0-1.455 1.265-2.235 2.698-2.235 1.412 0 2.656.78 2.698 2.213h-1.116c-.064-.653-.57-1.18-1.602-1.18-.886 0-1.518.422-1.518 1.138 0 .506.337.864 1.054 1.033l1.265.317c1.16.274 1.98.822 1.98 2.108 0 1.496-1.222 2.318-2.887 2.318-2.065 0-2.782-1.243-2.803-2.255h1.138v-.042zM113.965 39.253h1.117v.95h.063c.127-.423.527-1.034 1.58-1.034.886 0 1.434.463 1.624 1.095h.04c.233-.57.78-1.096 1.793-1.096 1.2 0 1.918.673 1.918 1.854v4.11h-1.116V41.36c0-.737-.422-1.18-1.16-1.18-.695 0-1.222.506-1.222 1.286v3.668h-1.096v-3.73c0-.76-.464-1.223-1.18-1.223-.696 0-1.202.485-1.202 1.286v3.668h-1.117v-5.88h-.042zM124.23 43.405c0-1.032.716-1.728 2.065-1.728h1.497v-.548c0-.675-.443-.992-1.16-.992-.695 0-1.01.274-1.117.654h-1.075c.085-.97.843-1.623 2.213-1.623 1.244 0 2.256.526 2.256 1.98v3.984h-1.076v-.76h-.042c-.274.444-.78.865-1.666.865-1.096-.022-1.896-.74-1.896-1.835zm3.583-.252V42.5h-1.37c-.76 0-1.075.357-1.075.863 0 .633.527.928 1.117.928.76 0 1.328-.505 1.328-1.137zM131.46 39.253h1.116v.907h.063c.147-.4.568-.99 1.58-.99.148 0 .274.02.38.04v1.076a3.027 3.027 0 0 0-.506-.042c-1.012 0-1.497.59-1.497 1.39v3.52h-1.138v-5.9zM136.834 37.82h1.096v1.475h1.307v.97h-1.307v3.14c0 .654.232.822.927.822.148 0 .38-.02.464-.02v.927a5.38 5.38 0 0 1-.758.063c-1.412 0-1.75-.527-1.75-1.686v-3.224h-.885v-.97h.907V37.82zM150.197 45.113h-4.553v-7.588h1.138v6.513h3.415zM152.684 36.745c.464 0 .78.316.78.738 0 .42-.316.737-.78.737-.443 0-.76-.316-.76-.737 0-.443.317-.738.76-.738zm-.57 2.508h1.118v5.86h-1.117v-5.86zM155.17 39.253h1.245l1.37 4.7h.042l1.475-4.7h1.18l-2.107 5.86h-1.202zM162.99 36.745c.464 0 .78.316.78.738 0 .42-.316.737-.78.737-.442 0-.758-.316-.758-.737 0-.443.316-.738.76-.738zm-.568 2.508h1.117v5.86h-1.118v-5.86zM166.173 39.253h1.117v1.054h.064c.147-.464.57-1.138 1.77-1.138 1.18 0 1.98.652 1.98 1.98v3.984h-1.137v-3.626c0-.906-.463-1.306-1.2-1.306-.97 0-1.456.716-1.456 1.665v3.267h-1.116v-5.88h-.02zM177.197 44.965V44.1h-.064c-.23.507-.822.928-1.644.928-1.286 0-2.298-.927-2.298-2.53v-.8c0-1.602.99-2.53 2.276-2.53.865 0 1.497.486 1.687.97h.042v-.885h1.075v5.754c0 1.644-1.14 2.298-2.635 2.298-1.56 0-2.276-.76-2.36-1.644h1.116c.085.4.548.696 1.265.696 1.054 0 1.54-.527 1.54-1.39zm-2.867-3.098v.506c0 1.032.61 1.686 1.476 1.686.885 0 1.37-.718 1.37-1.54v-.8c0-.844-.527-1.56-1.39-1.56-.887 0-1.456.674-1.456 1.707z" fill="#828888"/></g></svg>